<svg width="200" height="200" viewBox="0 0 1024 1024" xmlns="http://www.w3.org/2000/svg">
  <path d="M512 64c20.1 0 38.4 11.4 47.2 29.5l106.4 215.6 237.9 34.6c19.9 2.9 36.4 16.8 42.6 35.9 6.2 19.1 1 40.1-13.4 54.1L760.5 601.6l40.7 236.9c3.4 19.8-4.8 39.9-21.1 51.7-16.3 11.8-37.9 13.4-55.6 4.1L512 782.6 299.5 894.3c-17.8 9.3-39.3 7.7-55.6-4.1-16.3-11.8-24.5-31.9-21.1-51.7l40.7-236.9L91.3 433.7c-14.4-14-19.6-35-13.4-54.1 6.2-19.1 22.7-33 42.6-35.9l237.9-34.6L464.8 93.5C473.6 75.4 491.9 64 512 64z" fill="#666666"/>
</svg>
