<svg width="200" height="200" viewBox="0 0 1024 1024" xmlns="http://www.w3.org/2000/svg">
  <path d="M512 128c170 0 313.8 111.4 363.3 265.1 5.4 16.8-3.8 34.9-20.6 40.3-16.8 5.4-34.9-3.8-40.3-20.6C773.2 284.9 653.4 192 512 192c-99.3 0-188.2 45-247.1 115.8H352c17.7 0 32 14.3 32 32s-14.3 32-32 32H192c-17.7 0-32-14.3-32-32V179.8c0-17.7 14.3-32 32-32s32 14.3 32 32v73.6C294.3 176.4 397 128 512 128zm320 492.2c17.7 0 32 14.3 32 32v160c0 17.7-14.3 32-32 32s-32-14.3-32-32v-73.6C729.7 815.6 627 864 512 864c-170 0-313.8-111.4-363.3-265.1-5.4-16.8 3.8-34.9 20.6-40.3 16.8-5.4 34.9 3.8 40.3 20.6C250.8 707.1 370.6 800 512 800c99.3 0 188.2-45 247.1-115.8H672c-17.7 0-32-14.3-32-32s14.3-32 32-32h160z" fill="#666666"/>
</svg>
