<svg width="200" height="200" viewBox="0 0 1024 1024" xmlns="http://www.w3.org/2000/svg">
  <path d="M352 128h320c17.7 0 32 14.3 32 32v64h160c17.7 0 32 14.3 32 32s-14.3 32-32 32h-48l-46.7 554.8C763.7 909.2 708.2 960 641.5 960h-259c-66.7 0-122.2-50.8-127.8-117.2L208 288h-48c-17.7 0-32-14.3-32-32s14.3-32 32-32h160v-64c0-17.7 14.3-32 32-32zm32 96h256v-32H384v32zm-111.8 64 46.3 549.4c2.8 33.2 30.5 58.6 64 58.6h259c33.5 0 61.2-25.4 64-58.6L751.8 288H272.2zM416 400c17.7 0 32 14.3 32 32v320c0 17.7-14.3 32-32 32s-32-14.3-32-32V432c0-17.7 14.3-32 32-32zm192 0c17.7 0 32 14.3 32 32v320c0 17.7-14.3 32-32 32s-32-14.3-32-32V432c0-17.7 14.3-32 32-32z" fill="#666666"/>
</svg>
